<svg width="641" height="576" viewBox="0 0 641 576" fill="none" xmlns="http://www.w3.org/2000/svg">
<path d="M141.218 23.0352L140.934 20.5513C140.248 20.6297 139.626 20.9876 139.214 21.5405L141.218 23.0352ZM316.494 3L316.753 0.513518L316.481 0.485126L316.21 0.516174L316.494 3ZM498.781 22.0334L500.783 20.537C500.366 19.9783 499.734 19.6193 499.04 19.5469L498.781 22.0334ZM638 208.36L639.88 210.008C640.658 209.12 640.709 207.809 640.003 206.864L638 208.36ZM3 208.36L0.995978 206.866C0.294355 207.806 0.341549 209.109 1.10943 209.996L3 208.36ZM318.497 573L316.606 574.636C317.079 575.183 317.766 575.498 318.489 575.5C319.212 575.502 319.901 575.191 320.377 574.648L318.497 573ZM141.502 25.519L316.778 5.48383L316.21 0.516174L140.934 20.5513L141.502 25.519ZM316.234 5.48648L498.521 24.5199L499.04 19.5469L316.753 0.513518L316.234 5.48648ZM496.778 23.5298L635.997 209.857L640.003 206.864L500.783 20.537L496.778 23.5298ZM5.00402 209.855L143.222 24.5298L139.214 21.5405L0.995978 206.866L5.00402 209.855ZM130.2 205.86H3V210.86H130.2V205.86ZM138.722 22.8868L127.705 208.212L132.696 208.509L143.713 23.1835L138.722 22.8868ZM132.052 210.04L318.345 4.67972L314.642 1.32028L128.349 206.681L132.052 210.04ZM638 205.86H505.792V210.86H638V205.86ZM505.792 205.86H130.2V210.86H505.792V205.86ZM314.655 4.69442L503.954 210.055L507.63 206.666L318.332 1.30558L314.655 4.69442ZM508.29 208.266L501.279 21.9394L496.283 22.1274L503.294 208.454L508.29 208.266ZM127.979 209.507L316.276 574.147L320.718 571.853L132.422 207.213L127.979 209.507ZM320.721 574.142L508.016 209.503L503.568 207.218L316.273 571.858L320.721 574.142ZM636.12 206.713L316.617 571.352L320.377 574.648L639.88 210.008L636.12 206.713ZM320.387 571.364L4.89057 206.725L1.10943 209.996L316.606 574.636L320.387 571.364Z" fill="black"/>
</svg>
